nColumns=19
nRows=46
DataType=double
version=3
OpenSimVersion=4.1
endheader
time	ground_force_1_vx	ground_force_1_vy	ground_force_1_vz	ground_force_1_px	ground_force_1_py	ground_force_1_pz	ground_force_1_mx	ground_force_1_my	ground_force_1_mz	ground_force_2_vx	ground_force_2_vy	ground_force_2_vz	ground_force_2_px	ground_force_2_py	ground_force_2_pz	ground_force_2_mx	ground_force_2_my	ground_force_2_mz
71.53	-8.62075	535.418	17.765	0.639211	0	-1.01726	541.252	30.866	-257.665	-0.0194488	-0.0312933	0.004794	0	0	0	0	0	0
71.535	-15.5561	520.104	22.7188	0.639343	0	-1.01061	522.024	40.2109	-250.942	2.91556	4.69171	-0.720513	0	0	0	5.20344	-2.76833	1.884
71.54	-21.5371	505.489	26.5865	0.639335	0	-1.0037	510.887	43.0035	-243.793	-0.224564	-0.361368	0.0554957	0	0	0	-0.647215	0.344331	-0.234337
71.545	-9.01208	494.497	26.5389	0.639111	0	-0.996341	497.754	26.8645	-236.049	-0.0141148	-0.0227135	0.00348815	0	0	0	0	0	0
71.55	-3.5279	478.697	15.5161	0.63863	0	-0.988433	474.447	18.017	-229.404	-0.000886209	-0.00142608	0.000219005	0	0	0	0	0	0
71.555	-5.03133	462.101	9.20695	0.637899	0	-0.979974	452.016	18.2936	-222.06	-5.55803e-05	-8.94396e-05	1.37354e-05	0	0	0	0	0	0
71.56	-17.9286	447.865	12.9201	0.636975	0	-0.971089	432.951	31.3841	-217.775	-3.48201e-06	-5.60324e-06	8.60497e-07	0	0	0	0	0	0
71.565	-24.9864	438.466	4.62303	0.635962	0	-0.96201	421.652	37.3886	-212.059	-2.17903e-07	-3.50648e-07	5.38495e-08	0	0	0	0	0	0
71.57	-32.322	432.846	-7.77944	0.634987	0	-0.953032	412.38	39.9451	-210.896	-1.36212e-08	-2.19191e-08	3.36615e-09	0	0	0	0	0	0
71.575	-31.5094	425.553	-9.30005	0.634178	0	-0.944443	400.884	38.7472	-205.784	-8.50517e-10	-1.36865e-09	2.10185e-10	0	0	0	0	0	0
71.58	-30.9065	412.423	-6.62073	0.633634	0	-0.936463	384.748	34.7574	-202.71	-5.30472e-11	-8.53634e-11	1.31094e-11	0	0	0	0	0	0
71.585	-20.891	410.038	-7.99886	0.633402	0	-0.929184	379.209	23.7716	-200.265	-3.30482e-12	-5.3181e-12	8.16707e-13	0	0	0	0	0	0
71.59	-10.1231	419.422	-13.391	0.633473	0	-0.922556	388.444	13.2656	-203.296	-2.05651e-13	-3.30932e-13	5.08217e-14	0	0	0	0	0	0
71.595	-2.14324	418.983	-12.4931	0.633787	0	-0.916394	384.68	3.89983	-201.792	-1.27821e-14	-2.05689e-14	3.15879e-15	0	0	0	0	0	0
71.6	-8.9012	417.42	-9.49953	0.63425	0	-0.910431	380.979	8.43302	-203.683	-7.93511e-16	-1.27691e-15	1.96097e-16	0	0	0	0	0	0
71.605	-14.7045	424.249	-8.34795	0.634761	0	-0.904374	384.193	16.338	-205.804	-4.92008e-17	-7.91737e-17	1.21588e-17	0	0	0	0	0	0
71.61	-19.3127	436.518	-14.9821	0.635229	0	-0.89796	392.972	18.7733	-211.521	-3.04681e-18	-4.90292e-18	7.52948e-19	0	0	0	0	0	0
71.615	-19.0786	444.041	-19.492	0.635591	0	-0.891	396.586	19.198	-214.067	-1.88434e-19	-3.03227e-19	4.6567e-20	0	0	0	0	0	0
71.62	-20.5607	443.048	-20.0958	0.635813	0	-0.883404	389.049	18.0763	-216.168	-1.16385e-20	-1.87286e-20	2.87618e-21	0	0	0	0	0	0
71.625	-19.6121	454.583	-22.17	0.635895	0	-0.875184	397.123	12.2716	-220.313	-7.17796e-22	-1.15502e-21	1.77429e-22	0	0	0	0	0	0
71.63	-18.1026	468.116	-29.52	0.635862	0	-0.866443	407.405	8.55867	-225.573	-4.32164e-23	-6.86813e-23	1.13596e-23	0	0	0	0	0	0
71.635	-20.5522	474.906	-33.6262	0.635755	0	-0.857359	405.933	9.60515	-230.173	1.33168e-23	3.51389e-23	7.53036e-24	0	0	0	0	0	0
71.64	-24.7112	484.63	-38.0662	0.635625	0	-0.848152	410.68	11.3887	-235.402	2.57178e-22	6.31573e-22	1.0853e-22	0	0	0	0	0	0
71.645	-24.8864	498.341	-44.042	0.635518	0	-0.839052	418.662	8.36677	-241.775	4.12512e-21	1.0092e-20	1.71415e-21	0	0	0	0	0	0
71.65	-24.3105	515.882	-52.8631	0.635472	0	-0.830261	428.851	2.74381	-249.443	6.605e-20	1.61018e-19	2.7052e-20	0	0	0	0	0	0
71.655	-24.1666	528.342	-57.7635	0.635509	0	-0.821924	433.712	-0.694555	-255.739	1.05639e-18	2.56622e-18	4.26414e-19	0	0	0	0	0	0
71.66	-25.4445	543.578	-59.5977	0.635632	0	-0.814104	442.36	-2.47785	-263.764	1.68771e-17	4.08544e-17	6.71322e-18	0	0	0	0	0	0
71.665	-22.8105	560.912	-65.7987	0.635827	0	-0.806773	452.884	-6.63759	-271.768	2.69336e-16	6.49691e-16	1.05557e-16	0	0	0	0	0	0
71.67	-21.3113	580.536	-74.822	0.636066	0	-0.799818	464.148	-11.0825	-281.241	4.29353e-15	1.03204e-14	1.65761e-15	0	0	0	0	0	0
71.675	-19.8129	601.964	-80.6383	0.636313	0	-0.793059	477.221	-16.6103	-290.327	6.83692e-14	1.6376e-13	2.59958e-14	0	0	0	0	0	0
71.68	-20.7553	617.124	-84.8368	0.636528	0	-0.786273	485.227	-19.3859	-298.89	1.0875e-12	2.59558e-12	4.07125e-13	0	0	0	0	0	0
71.685	-20.5135	635.42	-87.5799	0.636675	0	-0.779226	493.439	-22.1419	-307.356	1.72792e-11	4.10931e-11	6.36705e-12	0	0	0	0	0	0
71.69	-20.9433	653.694	-95.393	0.636723	0	-0.7717	504.823	-25.4146	-316.048	2.74243e-10	6.49843e-10	9.94281e-11	0	0	0	0	0	0
71.695	-18.0404	667.265	-103.174	0.636653	0	-0.763524	510.708	-30.0505	-322.645	4.34776e-09	1.02646e-08	1.5503e-09	0	0	0	0	0	0
71.7	-16.678	679.386	-109.76	0.63646	0	-0.754594	511.769	-35.4987	-328.387	6.88502e-08	1.61945e-07	2.41338e-08	0	0	0	0	0	0
71.705	-15.684	685.703	-116.281	0.636154	0	-0.74489	511.677	-41.0986	-332.428	1.08906e-06	2.55191e-06	3.75067e-07	0	0	0	0	0	0
71.71	-13.8325	693.368	-121.618	0.635761	0	-0.734478	509.656	-46.499	-335.691	1.72066e-05	4.01634e-05	5.8187e-06	0	0	0	0	0	0
71.715	-11.7854	697.473	-132.86	0.635322	0	-0.72351	506.427	-53.9556	-337.296	0.000271535	0.000631317	9.01024e-05	0	0	0	0	0	0
71.72	-11.5506	697.381	-142.392	0.63489	0	-0.712203	498.821	-58.2752	-337.63	0.00427995	0.00991061	0.00139249	0	0	0	0	0	0
71.725	-9.53211	691.453	-150.987	0.634522	0	-0.700806	483.977	-65.4158	-335.299	0.067378	0.155372	0.0214752	0	0	0	0	0	0
71.73	-8.4613	680.893	-161.315	0.634273	0	-0.689566	466.313	-70.4863	-330.995	6.07491	15.0677	2.10593	0.457704	0	-1.19328	17.5863	-8.21455	7.29716
71.735	-12.544	671.128	-174.747	0.634189	0	-0.678687	452.323	-72.7373	-326.587	18.4311	70.6061	20.1148	0.45449	0	-1.20345	80.3774	-28.9028	35.2569
71.74	-21.2031	650.757	-179.498	0.634297	0	-0.668304	433.383	-71.0856	-318.066	72.7368	384.339	85.5203	0.452648	0	-1.21004	449.605	-102.333	189.266
71.745	-31.5125	631.177	-173.378	0.634604	0	-0.658462	413.959	-59.9166	-309.083	-9.42972	633.16	138.331	0.451439	0	-1.21502	765.657	-71.4531	260.408
71.75	-20.2468	635.533	-198.737	0.635096	0	-0.64913	414.366	-69.0141	-303.871	-56.0968	444.961	42.6432	0.450593	0	-1.21909	567.987	2.57528	214.458
71.755	-21.5484	586.804	-211.138	0.635748	0	-0.640211	386.624	-78.3912	-284.121	-15.2476	603.018	47.5161	0.449988	0	-1.22247	725.317	10.0779	279.949
